# xmcd CD database file
#
# Track frame offsets:
#	150
#	10370
#	23517
#	33886
#	45461
#	56464
#	66454
#	79301
#	91531
#	102947
#	112478
#	124432
#
# Disc length: 1801 seconds
#
# Revision: 2
# Processed by: cddbd v1.5.1PL0 Copyright (c) Steve Scherf et al.
# Submitted via: CDex 1.51
#
DISCID=9a07070c
DTITLE=Various Artist - Cream Of Vintage Soul - Volume 1 [CD3 of 3)
DYEAR=1997
DGENRE=Soul
TTITLE0=Oatis Leavill - Gotta Right To Try
TTITLE1=Natural Four - I Thought You Where Mine
TTITLE2=Martha Reeves - Hit And Run
TTITLE3=Edwin Starr - My Kind Of Woman
TTITLE4=Jimmy Thomas - Just Tryin' To Please You
TTITLE5=Darrow Felcher - Gotta Draw The Line
TTITLE6=Luther Ingram - If It's All The Same To You Babe
TTITLE7=Timothy Wilson - Hiding In Your Heart
TTITLE8=James Fountain - Malnutrition
TTITLE9=Dynamics - Bingo
TTITLE10=Eddie Holman - Stay Mine For Heaven's Sake
TTITLE11=Darrell Banks - Look Into The Eyes Of A Fool
EXTD=tim1701 YEAR: 1997
EXTT0=
EXTT1=
EXTT2=
EXTT3=
EXTT4=
EXTT5=
EXTT6=
EXTT7=
EXTT8=
EXTT9=
EXTT10=
EXTT11=
PLAYORDER=
